# xmcd
#
# Track frame offsets:
#	182
#	24615
#	48245
#	65227
#	90462
#	103460
#	131445
#	148272
#	158005
#	172850
#	187015
#	208312
#
# Disc length: 3038 seconds
#
# Revision: 0
# Processed by: cddbd v1.4PL0 Copyright (c) Steve Scherf et al.
# Submitted via: EasyCDDAExtractor 4.6.0.1
#
DISCID=b10bdc0c
DTITLE=Various Artist - 다시 보는 세상
DYEAR=1994
DGENRE=CCM
TTITLE0=다시 보는 세상
TTITLE1=소나무
TTITLE2=우린 사랑이죠
TTITLE3=하느님 내 주시여
TTITLE4=마리아의 노래
TTITLE5=예루살렘 예루살렘아
TTITLE6=십자가 바라보면서
TTITLE7=봄
TTITLE8=맨드라미
TTITLE9=주님 나의 맘 알리라
TTITLE10=주기도문
TTITLE11=어서 빨리 오시어
EXTD=
EXTT0=
EXTT1=
EXTT2=
EXTT3=
EXTT4=
EXTT5=
EXTT6=
EXTT7=
EXTT8=
EXTT9=
EXTT10=
EXTT11=
PLAYORDER=
